<?xml version="1.0" standalone="no"?>
<!DOCTYPE svg PUBLIC "-//W3C//DTD SVG 20010904//EN"
 "http://www.w3.org/TR/2001/REC-SVG-20010904/DTD/svg10.dtd">
<svg version="1.0" xmlns="http://www.w3.org/2000/svg"
 width="671.000000pt" height="671.000000pt" viewBox="0 0 671.000000 671.000000"
 preserveAspectRatio="xMidYMid meet">

<g transform="translate(0.000000,671.000000) scale(0.100000,-0.100000)"
fill="#000000" stroke="none">
<path d="M3206 6383 c82 -80 132 -149 140 -193 6 -27 4 -30 -17 -30 -42 1
-122 35 -194 83 -50 34 -90 51 -141 63 -89 19 -142 15 -76 -6 50 -16 102 -69
102 -105 0 -33 -44 -65 -90 -65 -36 0 -63 10 -190 67 -79 36 -161 58 -273 73
-65 8 -102 9 -108 3 -7 -7 11 -14 53 -22 93 -18 194 -66 303 -143 15 -12 -15
-28 -52 -28 -39 0 -40 -3 -12 -38 l21 -27 -59 -2 c-150 -7 -316 -36 -345 -62
-4 -3 32 -6 80 -6 104 0 142 -17 142 -64 0 -34 -11 -44 -155 -138 -55 -36
-117 -82 -137 -102 -39 -37 -83 -109 -74 -119 3 -3 8 2 12 11 9 23 97 77 126
77 27 0 58 -27 58 -51 0 -31 -80 -156 -149 -231 -33 -37 -18 -35 50 6 31 19
88 44 125 57 38 12 74 27 80 33 6 6 28 49 50 96 150 333 419 500 805 501 146
0 191 -7 187 -30 -3 -14 -26 -17 -158 -22 -315 -12 -524 -101 -669 -284 -58
-73 -123 -187 -135 -238 -9 -36 -40 -67 -68 -67 -74 0 -206 -102 -244 -187
-20 -46 -28 -53 -63 -63 -99 -27 -234 -182 -287 -332 -15 -42 -8 -47 27 -19
82 64 134 66 236 10 60 -33 77 -39 88 -29 21 17 19 59 -5 105 -24 48 -18 56
18 23 59 -56 98 -59 160 -12 37 29 38 28 45 -66 5 -73 47 -221 84 -293 79
-157 233 -329 390 -435 50 -34 96 -62 102 -62 16 0 26 48 26 125 -1 95 -28
154 -107 226 l-60 57 18 28 c10 16 46 73 81 126 l62 97 -34 74 c-48 103 -65
184 -65 306 0 147 34 262 107 357 68 90 203 132 338 105 30 -6 36 -10 23 -16
-26 -11 -22 -34 7 -41 31 -8 31 -15 4 -40 -12 -10 -28 -33 -35 -51 -15 -34
-17 -130 -5 -173 7 -25 8 -24 34 18 15 23 32 40 36 37 5 -2 14 -33 21 -68 12
-66 47 -124 57 -98 3 8 17 25 31 38 23 22 24 24 9 41 -19 21 -21 45 -7 73 17
31 93 27 119 -7 43 -55 36 -134 -19 -215 -41 -61 -41 -116 1 -163 40 -46 88
-75 150 -91 48 -13 50 -13 36 3 -24 29 -26 48 -6 81 23 37 23 41 6 41 -23 0
-57 40 -57 66 0 14 12 37 26 51 24 24 25 30 16 61 -13 41 -2 75 34 113 25 26
25 28 10 57 -9 17 -16 54 -16 81 0 43 4 53 25 67 22 14 30 15 50 4 29 -15 32
-44 10 -86 -8 -16 -15 -39 -15 -52 0 -29 41 -68 80 -75 22 -5 33 -16 44 -42 8
-19 20 -35 25 -35 6 0 18 -12 27 -26 15 -22 16 -31 5 -59 -10 -30 -9 -37 14
-70 28 -43 29 -44 15 -80 -8 -22 -7 -27 15 -35 13 -5 29 -18 34 -29 15 -27 14
-74 -1 -89 -10 -10 -10 -15 2 -22 22 -14 22 -14 83 48 75 76 118 134 157 212
38 75 46 99 64 193 12 58 12 66 0 56 -8 -6 -14 -17 -14 -23 0 -16 -52 -88
-108 -152 -35 -38 -45 -45 -52 -34 -6 8 -10 24 -10 36 0 11 -11 43 -25 70 -26
51 -32 89 -15 99 13 8 13 71 0 115 -26 87 -8 246 44 383 75 199 92 418 46 577
l-25 85 -6 -125 c-9 -189 -50 -343 -141 -527 -29 -60 -53 -91 -63 -81 -3 2 0
45 6 94 22 175 -1 427 -48 517 -21 42 -25 28 -13 -44 20 -128 8 -323 -16 -252
-22 63 -79 201 -91 218 -12 17 -13 9 -7 -65 l7 -85 -30 28 c-29 27 -30 27 -39
8 -5 -12 -14 -17 -20 -13 -6 4 -43 54 -82 112 -65 97 -153 196 -209 235 -32
22 -29 10 11 -44 28 -38 76 -137 76 -156 0 -15 -30 1 -98 53 -163 122 -235
163 -387 218 -11 4 12 -25 51 -63z m-766 -1104 c0 -13 -87 -52 -103 -46 -7 2
10 18 37 35 47 30 66 33 66 11z"/>
<path d="M3874 5115 c-4 -9 6 -41 22 -72 26 -51 29 -69 34 -197 5 -112 11
-151 27 -187 38 -85 111 -115 253 -103 60 4 94 3 109 -6 31 -16 37 -6 16 26
-17 26 -17 28 1 41 10 7 36 16 58 20 32 5 36 8 21 14 -24 8 -56 3 -164 -27
-112 -32 -161 -31 -201 2 -52 44 -62 82 -65 249 -3 120 -7 160 -23 200 -17 44
-24 50 -51 53 -22 2 -33 -2 -37 -13z"/>
<path d="M3224 5049 c-15 -17 -19 -39 -21 -117 -3 -124 -9 -154 -34 -187 -26
-32 -18 -43 17 -25 47 26 66 66 80 168 7 54 16 109 20 125 7 28 -8 57 -31 57
-6 0 -20 -9 -31 -21z"/>
<path d="M3082 5008 c-40 -49 -55 -183 -26 -244 18 -38 39 -46 30 -11 -6 25
31 114 57 136 26 21 20 54 -16 96 -28 32 -34 35 -45 23z"/>
<path d="M3337 4972 c-21 -23 -21 -54 -2 -118 22 -72 19 -136 -6 -168 -30 -38
-16 -44 30 -13 28 19 43 38 55 73 18 54 21 151 5 207 -8 31 -14 37 -38 37 -15
0 -35 -8 -44 -18z"/>
<path d="M4922 4899 c-61 -31 -91 -99 -42 -99 9 0 34 7 55 16 21 8 59 17 86
19 59 4 69 10 69 41 0 47 -94 59 -168 23z"/>
<path d="M3492 4858 c-22 -11 -23 -15 -21 -138 2 -106 0 -130 -15 -153 -17
-25 -17 -27 -2 -27 23 0 68 54 83 99 6 20 12 77 12 127 1 75 -2 93 -15 98 -9
3 -16 6 -17 5 -1 0 -12 -5 -25 -11z"/>
<path d="M5190 4812 c0 -47 -47 -125 -87 -145 -39 -21 -99 -36 -185 -47 -40
-5 -89 -14 -109 -20 -33 -9 -119 -73 -119 -89 0 -4 25 -22 55 -40 47 -29 59
-32 78 -23 43 23 79 32 180 48 153 24 198 48 239 128 26 51 19 120 -17 182
-14 24 -28 44 -30 44 -3 0 -5 -17 -5 -38z"/>
<path d="M1970 4736 c0 -19 16 -70 36 -114 32 -72 41 -82 85 -107 46 -24 67
-22 35 4 -8 7 -24 49 -36 94 -34 125 -49 151 -88 155 -31 3 -32 2 -32 -32z"/>
<path d="M2200 4680 c-11 -21 -20 -45 -20 -53 0 -7 20 -32 44 -56 25 -25 48
-59 55 -83 14 -45 24 -41 40 16 11 42 -5 107 -39 156 -9 14 -20 33 -23 43 -11
29 -35 19 -57 -23z"/>
<path d="M1872 4638 c-34 -34 8 -193 68 -258 28 -30 45 -40 67 -40 l31 0 -29
31 c-29 31 -45 84 -36 118 8 30 -11 122 -29 142 -19 22 -54 25 -72 7z"/>
<path d="M1788 4489 c-27 -15 -22 -50 19 -129 52 -100 120 -155 170 -136 14 6
12 10 -13 25 -41 25 -52 40 -63 92 -16 69 -47 136 -70 148 -23 13 -22 13 -43
0z"/>
<path d="M5802 4451 c-66 -23 -84 -39 -126 -117 -92 -167 -120 -286 -80 -342
28 -41 54 -25 78 48 29 85 122 264 158 306 16 18 38 36 48 39 19 6 44 61 34
76 -8 14 -54 10 -112 -10z"/>
<path d="M3488 4371 c-101 -92 -138 -205 -103 -313 21 -65 55 -103 120 -134
136 -65 299 6 329 142 8 34 8 33 -104 96 -162 92 -152 84 -138 114 6 13 14 24
18 24 3 0 58 -27 123 -60 64 -33 119 -60 122 -60 3 0 5 18 5 40 0 29 -5 42
-20 50 -24 13 -25 23 -3 45 12 12 27 16 55 12 21 -3 38 -2 38 3 0 17 -119 44
-200 46 -144 3 -149 3 -168 24 l-19 21 -55 -50z"/>
<path d="M4637 4413 c-14 -13 -7 -60 11 -77 10 -9 61 -34 113 -56 51 -22 124
-58 160 -80 37 -22 79 -40 92 -40 32 0 87 61 87 96 0 25 -2 26 -37 18 -85 -17
-111 -13 -186 34 -78 48 -205 112 -223 112 -6 0 -14 -3 -17 -7z"/>
<path d="M6030 4373 c0 -54 -25 -138 -49 -169 -12 -15 -21 -32 -21 -38 0 -24
-58 -133 -86 -161 -16 -17 -47 -51 -68 -78 -50 -61 -104 -77 -133 -40 -9 12
-92 48 -120 53 -1 0 3 -14 9 -30 13 -39 91 -107 137 -120 85 -23 139 -7 222
68 40 36 62 70 112 171 59 122 61 129 62 206 0 70 -4 86 -28 128 -15 26 -30
47 -32 47 -3 0 -5 -17 -5 -37z"/>
<path d="M4341 4378 c-39 -21 -47 -32 -93 -133 -27 -60 -58 -128 -68 -150 -31
-68 -85 -188 -106 -233 l-19 -44 -230 6 c-322 9 -610 15 -890 21 -395 9 -608
16 -616 21 -11 6 7 -41 34 -93 57 -107 77 -140 102 -163 l27 -25 338 -5 339
-5 -73 -65 c-41 -36 -73 -66 -73 -66 1 -1 63 -4 137 -6 74 -3 119 -2 100 1
-69 14 -74 30 -35 98 l26 43 298 0 298 0 59 -52 c32 -28 64 -57 69 -64 7 -9
51 -16 130 -21 112 -7 120 -9 118 -28 -1 -11 -5 -66 -9 -122 -5 -77 -10 -103
-20 -103 -8 0 -14 11 -14 27 0 36 -35 105 -62 122 -12 7 -35 17 -50 22 -25 7
-28 6 -23 -10 5 -16 -2 -20 -42 -26 -51 -7 -132 -46 -158 -75 -23 -25 -10 -64
31 -95 19 -14 34 -21 34 -16 0 6 7 11 15 11 9 0 14 8 12 21 -3 32 41 59 105
66 l56 6 20 -64 c11 -35 23 -89 27 -119 6 -46 14 -62 50 -100 45 -47 65 -96
65 -162 0 -91 -75 -195 -164 -226 -33 -11 -55 -26 -65 -44 -19 -34 -73 -41
-64 -9 4 15 -3 19 -36 25 -23 3 -50 15 -61 26 -25 25 -55 27 -46 4 6 -15 0
-16 -44 -10 -73 10 -98 21 -120 58 l-20 33 -47 -51 c-57 -61 -80 -74 -127 -74
-20 0 -36 -4 -36 -10 0 -21 -105 -11 -159 16 -45 23 -61 26 -114 21 -34 -3
-108 -3 -165 0 -92 5 -102 8 -88 21 13 13 11 19 -18 54 -19 21 -41 62 -50 91
-18 59 -32 231 -16 207 5 -8 10 -22 10 -31 0 -8 6 -23 13 -33 12 -16 18 -16
74 -5 53 11 63 16 69 38 10 40 12 294 1 317 l-9 21 -70 -29 c-38 -16 -73 -27
-76 -23 -13 13 17 41 79 73 69 35 77 48 59 93 -9 21 -23 32 -51 39 -37 10 -39
13 -39 48 0 25 10 54 30 85 42 67 20 58 -40 -15 -45 -56 -48 -63 -30 -66 31
-5 24 -27 -12 -37 -26 -8 -39 -22 -61 -65 l-27 -55 -4 -300 c-2 -165 0 -339 6
-387 l9 -88 -68 -75 c-37 -42 -93 -97 -125 -124 -41 -35 -54 -51 -47 -62 14
-22 11 -34 -13 -44 -12 -6 -26 -18 -32 -28 -9 -15 -6 -22 13 -38 15 -13 33
-18 46 -15 18 5 33 -8 84 -74 34 -44 64 -87 68 -95 3 -10 -7 -29 -28 -51 l-33
-34 35 0 c42 0 79 -24 79 -51 0 -11 -16 -35 -35 -53 -91 -86 3 -182 108 -111
l37 26 10 -25 c9 -24 37 -46 60 -46 6 0 9 4 6 8 -18 30 -46 173 -46 236 l0 74
-37 23 c-45 27 -62 47 -63 72 0 23 14 21 58 -8 20 -14 39 -21 43 -17 3 4 11
37 17 74 6 36 26 97 44 135 l34 69 -73 47 c-71 45 -73 47 -73 87 l0 41 31 -23
c66 -49 145 -98 158 -98 8 0 34 20 57 44 23 25 51 44 61 44 10 -1 51 9 92 22
63 19 85 22 155 16 150 -13 215 -21 221 -27 3 -3 1 -37 -5 -75 -5 -38 -10
-111 -10 -161 0 -86 -1 -93 -20 -93 -17 0 -20 7 -20 48 0 33 -9 66 -27 103
-23 45 -37 59 -82 82 -85 42 -202 33 -281 -23 -27 -19 -29 -23 -15 -34 15 -11
15 -13 -2 -28 -10 -9 -27 -18 -37 -19 -13 -3 -28 -25 -45 -69 -25 -62 -26 -74
-25 -240 0 -188 3 -206 59 -326 41 -87 59 -104 83 -80 13 13 17 34 16 94 -1
83 -14 121 -58 161 -19 18 -26 35 -26 62 l0 37 83 -18 c164 -37 284 -44 425
-25 l127 18 -1 152 c-1 84 -5 162 -9 174 -4 13 -22 29 -42 38 -27 11 -33 17
-24 26 6 6 11 20 11 32 0 15 15 28 55 49 30 15 82 47 115 72 57 41 102 55 114
35 10 -15 -96 -104 -167 -141 l-65 -35 146 0 c137 0 150 -2 197 -25 110 -55
127 -198 36 -301 l-39 -44 38 -75 c21 -41 53 -95 72 -120 l33 -45 9 115 c4 63
9 150 10 193 1 74 2 77 14 47 25 -61 43 -177 44 -272 0 -56 4 -95 9 -92 12 7
36 64 56 129 20 66 21 72 22 129 1 43 3 48 20 43 14 -3 21 2 25 19 7 27 -9 62
-61 138 -18 26 -33 55 -33 64 0 8 12 31 28 51 77 102 156 259 164 326 3 29 2
29 -50 31 -62 1 -75 10 -36 24 111 40 107 26 108 399 1 312 1 317 -21 340 -19
21 -29 23 -83 19 -73 -5 -104 -31 -129 -105 -10 -31 -22 -49 -35 -51 -19 -4
-19 8 -2 106 2 10 7 40 11 67 4 28 12 56 17 63 7 8 38 12 90 12 78 0 79 0 72
23 -24 78 -134 259 -207 340 -32 35 -34 41 -24 68 6 16 14 29 18 29 22 0 209
-235 209 -263 0 -4 13 -28 29 -54 16 -27 36 -69 46 -95 17 -45 33 -58 78 -58
15 0 14 5 -8 40 -46 72 -26 104 34 54 17 -14 31 -21 31 -14 0 28 -77 127 -168
215 -146 141 -162 197 -43 150 35 -13 70 -30 79 -37 13 -11 14 -11 8 0 -10 17
-86 87 -163 151 -35 28 -63 57 -63 64 0 7 29 79 65 160 36 81 65 159 65 172 0
32 -30 33 -89 3z m-641 -1844 c0 -9 -11 -14 -31 -14 -30 0 -31 5 -6 38 11 15
37 -2 37 -24z m-240 -319 l35 -13 -27 -6 c-16 -3 -39 -8 -53 -11 -34 -7 -168
6 -158 16 28 27 147 35 203 14z m-320 -656 c0 -34 -17 -28 -29 10 -6 21 -11
42 -11 47 1 17 40 -38 40 -57z"/>
<path d="M2545 4143 c9 -84 30 -135 72 -174 21 -19 32 -27 26 -19 -6 8 -16 49
-23 90 -14 87 -32 130 -61 148 -20 13 -20 12 -14 -45z"/>
<path d="M5225 4020 c-11 -17 5 -32 21 -19 7 6 11 15 8 20 -7 12 -21 11 -29
-1z"/>
<path d="M2286 3917 c3 -10 9 -15 12 -12 3 3 0 11 -7 18 -10 9 -11 8 -5 -6z"/>
<path d="M1625 3570 c-3 -5 -6 -35 -6 -67 1 -63 -8 -827 -10 -933 -2 -106 12
-233 28 -252 8 -9 23 -18 34 -21 18 -5 19 1 19 123 0 107 -3 129 -16 134 -14
5 -14 8 0 28 14 19 16 71 17 358 0 184 4 375 8 425 8 88 8 89 50 126 42 38 53
72 25 83 -25 10 -142 7 -149 -4z"/>
<path d="M850 3560 c0 -19 38 -145 69 -230 18 -47 47 -138 66 -203 33 -113 34
-121 20 -160 -20 -56 -19 -62 9 -75 16 -7 29 -26 39 -59 8 -26 23 -70 32 -98
10 -27 20 -57 22 -65 4 -12 6 -12 15 3 8 14 4 33 -17 79 -21 47 -26 69 -21
102 7 47 -12 123 -99 381 -29 88 -58 185 -64 215 -12 58 -43 120 -61 120 -5 0
-10 -5 -10 -10z"/>
<path d="M3370 3460 l-75 -18 78 -1 c93 -1 224 18 205 30 -22 14 -128 8 -208
-11z"/>
<path d="M3153 3342 c-20 -3 -21 -8 -17 -50 3 -26 1 -85 -4 -131 -6 -46 -8
-90 -5 -98 4 -10 38 -13 150 -13 137 0 145 1 166 23 12 13 27 32 33 42 6 12
15 16 23 11 10 -6 11 -30 6 -100 -11 -159 -17 -169 -62 -115 -36 42 -53 47
-176 50 -131 4 -142 -2 -137 -83 1 -29 3 -60 3 -68 1 -8 -2 -34 -6 -58 -7 -39
-5 -46 22 -73 49 -48 61 -40 61 41 0 57 4 74 20 90 11 11 27 20 35 20 35 0
110 -46 178 -109 38 -35 39 -36 54 -16 8 11 21 35 29 53 10 22 21 32 36 32 19
0 20 -4 14 -55 l-6 -55 35 0 35 0 0 85 c0 65 3 85 14 85 9 0 15 -18 19 -51 9
-70 47 -122 85 -113 50 12 85 39 111 85 l25 46 -27 41 -26 41 54 -32 c52 -30
54 -33 35 -46 -28 -19 -25 -27 11 -40 28 -10 30 -14 24 -38 -9 -38 -31 -61
-85 -88 l-45 -23 40 -6 c22 -4 51 -9 65 -11 45 -7 73 18 95 86 23 68 34 78 59
54 15 -15 16 -14 16 10 0 66 -45 107 -210 189 -52 26 -99 51 -105 55 -5 4 -18
11 -27 14 -13 4 -15 2 -11 -10 3 -9 -33 17 -80 56 -52 44 -84 78 -81 87 15 49
12 47 47 27 l32 -19 1 57 c1 56 0 58 -27 64 -34 8 -45 21 -30 39 16 19 3 26
-45 26 l-42 0 -7 -65 c-8 -77 -27 -87 -43 -22 -19 73 -32 79 -179 81 -70 0
-138 0 -150 -2z m347 -142 c13 -9 13 -10 0 -10 -8 0 -22 5 -30 10 -13 9 -13
10 0 10 8 0 22 -5 30 -10z"/>
<path d="M716 2963 c7 -426 16 -601 35 -630 7 -12 24 -27 37 -33 23 -10 24 -9
18 17 -14 58 -19 566 -6 623 16 73 15 97 -8 166 -10 33 -30 94 -43 136 -13 43
-27 78 -31 78 -4 0 -5 -161 -2 -357z"/>
<path d="M4678 3303 c-2 -10 -3 -141 -1 -290 2 -201 7 -288 18 -330 13 -51 35
-83 56 -83 4 0 5 120 3 268 -2 175 0 276 7 294 13 31 63 58 109 58 30 0 31 1
28 38 l-3 37 -94 3 c-52 1 -100 7 -107 13 -8 6 -13 4 -16 -8z"/>
<path d="M5270 3305 c0 -17 50 -98 57 -92 8 8 -16 90 -29 98 -19 13 -28 11
-28 -6z"/>
<path d="M4940 3253 c0 -47 5 -64 25 -88 21 -25 26 -28 35 -15 5 8 10 25 10
38 0 12 9 40 20 62 20 39 20 39 1 50 -11 5 -36 10 -55 10 l-36 0 0 -57z"/>
<path d="M5622 3283 c-6 -16 -13 -45 -16 -66 -3 -21 -21 -72 -41 -112 -29 -58
-44 -77 -72 -90 l-35 -17 4 -177 c3 -187 11 -222 55 -233 17 -5 18 4 18 136 0
158 -9 130 105 336 34 63 81 141 102 172 22 31 37 61 33 67 -3 6 -37 11 -74
11 -66 0 -69 -1 -79 -27z"/>
<path d="M2200 3283 c1 -10 8 -36 16 -58 8 -22 21 -58 29 -80 7 -22 27 -76 44
-120 17 -44 36 -100 41 -125 6 -25 21 -70 34 -100 13 -30 36 -86 52 -124 22
-56 33 -71 60 -82 62 -26 49 -34 -53 -34 -54 0 -103 -4 -109 -8 -6 -4 -14 -19
-18 -34 -3 -16 -9 -39 -12 -53 -5 -20 -2 -26 18 -34 13 -5 36 -7 51 -4 20 4
27 1 27 -11 0 -8 12 -29 28 -45 24 -25 32 -28 70 -24 58 7 72 32 86 146 11 83
14 92 34 95 12 2 22 7 22 12 0 4 -9 6 -20 3 -18 -5 -20 0 -20 48 0 30 -7 92
-15 139 -10 51 -15 129 -13 195 1 85 -1 109 -11 107 -28 -6 -84 -60 -128 -124
-26 -38 -47 -67 -49 -65 -1 1 -28 74 -59 162 -72 199 -106 271 -105 218z"/>
<path d="M5075 3290 c-3 -6 1 -13 9 -16 9 -3 41 -40 72 -83 66 -88 81 -105 64
-72 -34 66 -117 181 -131 181 -4 0 -11 -5 -14 -10z"/>
<path d="M1367 3185 c-10 -30 -24 -89 -32 -132 -7 -43 -32 -140 -54 -215 -23
-75 -41 -145 -41 -155 0 -10 -12 -56 -26 -103 -13 -47 -31 -122 -40 -168 -17
-96 -45 -158 -78 -174 -23 -10 -23 -13 -12 -51 6 -22 23 -49 38 -60 25 -19 28
-19 52 -3 41 26 56 58 77 162 10 55 28 135 38 179 11 44 26 112 34 150 8 39
29 124 47 190 31 110 33 132 34 267 0 82 -4 152 -9 157 -7 6 -16 -10 -28 -44z"/>
<path d="M2002 3070 c-23 -71 -42 -132 -42 -135 0 -3 17 -5 39 -5 34 0 40 4
51 30 7 17 24 39 38 50 23 19 24 22 13 66 -11 41 -47 124 -54 124 -2 0 -22
-58 -45 -130z"/>
<path d="M5286 3005 c24 -39 24 -40 24 -28 0 6 -9 21 -21 34 l-20 24 17 -30z"/>
<path d="M1953 2843 c-30 -4 -33 -9 -62 -89 -46 -127 -46 -128 -16 -152 14
-11 31 -23 38 -25 23 -8 -3 -20 -48 -22 -24 0 -46 -3 -48 -6 -1 -2 -16 -22
-31 -43 -44 -58 -30 -71 75 -71 l84 0 -3 35 c-9 93 -6 147 11 181 26 53 55 64
168 64 94 0 99 1 99 21 0 12 -7 38 -15 57 l-15 36 -35 -15 c-40 -16 -93 -8
-121 20 -15 16 -20 16 -81 9z"/>
<path d="M2931 2713 c20 -85 26 -99 34 -80 9 21 -12 92 -31 108 -9 8 -10 2 -3
-28z"/>
<path d="M4580 2538 c-7 -12 -24 -35 -38 -50 -14 -16 -22 -33 -19 -42 5 -14
30 -16 157 -16 173 0 186 7 131 64 -17 17 -31 37 -31 44 0 8 -23 12 -72 12
-40 0 -83 3 -95 6 -16 4 -24 0 -33 -18z"/>
<path d="M5400 2552 c0 -5 -13 -29 -29 -53 -42 -62 -32 -69 96 -69 120 0 128
6 95 75 -16 33 -27 44 -52 49 -46 9 -110 8 -110 -2z"/>
<path d="M1520 2220 c-8 -5 -29 -10 -47 -10 -41 0 -103 -52 -103 -86 0 -41 28
-45 224 -37 155 7 180 10 190 26 9 15 4 24 -30 57 -23 21 -52 41 -65 44 -56
11 -155 15 -169 6z"/>
<path d="M618 2176 c-42 -36 -49 -70 -19 -86 11 -5 77 -10 146 -10 69 0 135 5
146 10 30 16 23 45 -20 82 -37 32 -43 33 -128 36 -87 2 -88 1 -125 -32z"/>
<path d="M3850 2188 c-1 -2 -3 -66 -6 -144 l-6 -141 43 -6 c85 -11 138 33 147
123 5 59 -28 134 -70 156 -22 11 -107 21 -108 12z"/>
<path d="M5042 2030 l-3 -90 40 0 c38 0 41 2 51 39 13 50 47 65 132 59 59 -4
63 -6 107 -56 25 -29 53 -52 62 -52 9 0 34 20 56 44 24 26 52 46 71 51 37 8
36 5 20 57 l-12 40 -44 -6 c-25 -3 -59 -6 -77 -6 -26 0 -34 -6 -46 -31 -17
-40 -35 -35 -32 9 3 37 -23 47 -29 10 -4 -31 -26 -34 -34 -4 l-6 26 -127 0
-126 0 -3 -90z"/>
<path d="M5890 2090 c0 -20 -5 -30 -15 -30 -9 0 -15 9 -15 25 0 25 -1 25 -84
25 l-85 0 4 -209 c5 -256 12 -291 56 -291 18 0 19 11 19 180 0 191 6 220 47
239 35 16 46 14 88 -15 44 -29 55 -22 55 38 0 27 -6 41 -22 52 -34 24 -48 20
-48 -14z"/>
<path d="M4650 2102 c0 -4 6 -18 13 -32 7 -14 30 -79 51 -145 41 -125 102
-281 119 -302 23 -30 24 -8 2 55 -139 394 -148 417 -171 426 -8 3 -14 2 -14
-2z"/>
<path d="M4517 1948 c-20 -63 -24 -84 -14 -90 14 -9 77 -1 91 12 7 7 -23 112
-43 147 -4 8 -18 -21 -34 -69z"/>
<path d="M5079 1863 c-23 -4 -28 -10 -34 -51 -4 -26 -7 -74 -6 -107 2 -64 16
-87 59 -100 20 -6 22 -3 22 27 1 98 98 134 202 75 34 -20 39 -21 53 -6 21 21
26 126 6 138 -21 13 -71 -8 -71 -29 0 -22 -26 -34 -34 -14 -3 8 -19 14 -36 14
-37 0 -90 21 -109 43 -7 10 -16 16 -20 16 -3 -1 -18 -4 -32 -6z"/>
<path d="M3842 1745 c6 -114 16 -137 64 -149 46 -12 24 -26 -42 -26 -58 0 -68
-3 -85 -24 -11 -14 -40 -32 -65 -42 -45 -17 -47 -17 -61 1 -13 19 -14 19 -37
-10 -13 -17 -20 -32 -16 -35 4 -3 1 -21 -9 -40 -19 -41 -63 -66 -152 -84 -56
-11 -61 -14 -44 -24 16 -10 5 -11 -55 -7 -130 10 -241 55 -317 128 -42 40 -42
29 1 -36 45 -67 73 -97 126 -136 54 -39 34 -39 -75 -2 -85 30 -101 27 -71 -12
19 -24 10 -52 -20 -66 -63 -29 -169 -5 -319 72 -46 23 -77 31 -135 35 l-75 4
35 -24 c43 -29 50 -60 18 -82 -29 -20 -81 -20 -244 1 -124 15 -136 15 -200 0
-80 -20 -136 -46 -184 -86 l-34 -29 66 5 c71 6 138 -2 138 -17 0 -7 -88 -68
-115 -79 -54 -22 -265 -216 -265 -244 0 -3 16 -3 35 0 34 5 44 -3 26 -22 -5
-6 -13 -32 -19 -58 -11 -52 -10 -53 41 -32 15 6 17 0 17 -68 0 -41 3 -95 6
-120 l6 -45 117 -55 c64 -31 152 -70 195 -87 73 -30 85 -32 154 -25 84 8 205
39 236 60 26 19 21 19 -51 0 -130 -34 -332 -6 -443 60 -92 56 -138 116 -155
204 -21 105 16 211 108 308 63 67 138 113 247 150 130 46 216 57 387 49 429
-18 587 -19 690 -2 133 21 239 55 321 104 103 62 150 112 205 220 33 65 62 85
51 35 -25 -117 -141 -256 -258 -312 -99 -47 -206 -79 -299 -91 -115 -14 -343
-12 -542 5 -266 23 -452 -3 -625 -88 -297 -147 -337 -436 -76 -558 102 -48
176 -62 300 -57 95 3 126 9 221 41 102 34 273 122 262 133 -3 3 -38 -8 -79
-24 -228 -93 -200 -86 -365 -90 -135 -3 -160 -1 -216 17 -253 85 -230 327 41
436 108 44 182 51 302 31 92 -16 131 -27 325 -87 110 -34 224 -49 364 -49 345
1 581 103 764 330 70 86 154 244 177 329 23 88 26 92 56 79 22 -10 25 -17 20
-42 -4 -16 -18 -55 -33 -85 -15 -31 -29 -60 -31 -65 -3 -5 1 -6 7 -2 17 11 90
112 101 140 8 21 17 25 67 31 106 11 133 17 140 28 4 7 7 43 8 80 0 63 3 71
28 93 24 20 39 24 98 24 75 0 76 0 58 63 -10 39 -18 44 -36 26 -17 -17 -57 -6
-68 19 -8 18 -18 22 -52 22 -24 0 -43 -2 -43 -3 0 -2 -14 -42 -30 -88 l-31
-84 23 -17 23 -17 -31 -7 c-18 -3 -41 -18 -53 -35 -30 -40 -52 -39 -44 3 6 31
6 31 -28 23 -70 -15 -151 1 -199 41 -27 23 -45 51 -122 194 -24 44 -26 45 -78
48 l-53 3 5 -106z m-171 -338 c-8 -8 -11 -7 -11 4 0 20 13 34 18 19 3 -7 -1
-17 -7 -23z"/>
<path d="M3180 1735 c0 -40 36 -85 68 -85 27 0 42 -20 42 -58 0 -30 2 -33 15
-22 48 40 -30 200 -97 200 -25 0 -28 -3 -28 -35z"/>
<path d="M4758 1573 c-27 -4 -28 -7 -28 -58 0 -32 5 -57 13 -62 19 -12 386
-14 408 -3 18 10 18 13 -9 65 l-27 54 -60 0 c-56 1 -61 -1 -77 -29 -10 -18
-25 -30 -38 -30 -19 0 -54 27 -61 48 -5 12 -82 22 -121 15z"/>
<path d="M5621 1525 c-13 -24 -21 -51 -18 -59 11 -29 179 -32 214 -4 9 7 5 22
-15 59 l-27 49 -65 0 -65 0 -24 -45z"/>
<path d="M2950 1494 c0 -8 5 -12 10 -9 6 4 8 11 5 16 -9 14 -15 11 -15 -7z"/>
</g>
</svg>
